# xmcd CD database file
#
# Track frame offsets:
#	150
#	23237
#	37460
#	56170
#	73967
#	91695
#	108010
#	126927
#	145182
#	164372
#	182082
#	201627
#	220342
#	238042
#
# Disc length: 3397 seconds
#
# Revision: 0
# Processed by: cddbd v1.5.2PL0 Copyright (c) Steve Scherf et al.
# Submitted via: CDex 1.51
#
DISCID=d90d430e
DTITLE=Alejandro Maldonado - Yoga
DYEAR=2006
DGENRE=New Age
TTITLE0=Mystic Awakwning
TTITLE1=Astral Knowledge
TTITLE2=Citar Mood
TTITLE3=Ritual
TTITLE4=Sacred
TTITLE5=Karma
TTITLE6=Mirages
TTITLE7=Meditation
TTITLE8=Siva's Lightness
TTITLE9=New Morning
TTITLE10=Ramana
TTITLE11=Energy of Life
TTITLE12=Tibetan Dreams
TTITLE13=The Final Journey
EXTD=YEAR: 2006
EXTT0=
EXTT1=
EXTT2=
EXTT3=
EXTT4=
EXTT5=
EXTT6=
EXTT7=
EXTT8=
EXTT9=
EXTT10=
EXTT11=
EXTT12=
EXTT13=
PLAYORDER=
